<svg xmlns="http://www.w3.org/2000/svg" xmlns:xlink="http://www.w3.org/1999/xlink" version="1.1"  viewBox="0 0 256 256" xml:space="preserve">

<defs>
</defs>
<g style="stroke: none; stroke-width: 0; stroke-dasharray: none; stroke-linecap: butt; stroke-linejoin: miter; stroke-miterlimit: 10; fill: none; fill-rule: nonzero; opacity: 1;" transform="translate(1.4065934065934016 1.4065934065934016) scale(2.81 2.81)" >
	<circle cx="45" cy="45" r="45" style="stroke: none; stroke-width: 1; stroke-dasharray: none; stroke-linecap: butt; stroke-linejoin: miter; stroke-miterlimit: 10; fill: rgb(36,195,169); fill-rule: nonzero; opacity: 1;" transform="  matrix(1 0 0 1 0 0) "/>
	<path d="M 65.684 44.248 L 49.491 28.906 c -0.66 -0.625 -1.748 -0.157 -1.748 0.752 v 7.873 c 0 0.572 -0.464 1.036 -1.036 1.036 H 24.558 c -0.572 0 -1.036 0.464 -1.036 1.036 v 10.795 c 0 0.572 0.464 1.036 1.036 1.036 h 22.149 c 0.572 0 1.036 0.464 1.036 1.036 v 7.873 c 0 0.909 1.088 1.377 1.748 0.752 l 16.193 -15.342 C 66.115 45.343 66.115 44.657 65.684 44.248 z" style="stroke: none; stroke-width: 1; stroke-dasharray: none; stroke-linecap: butt; stroke-linejoin: miter; stroke-miterlimit: 10; fill: rgb(255,255,255); fill-rule: nonzero; opacity: 1;" transform=" matrix(1 0 0 1 0 0) " stroke-linecap="round" />
</g>
</svg>