<svg id="e9pUHTYEM3C1" xmlns="http://www.w3.org/2000/svg" xmlns:xlink="http://www.w3.org/1999/xlink" viewBox="0 0 76.01 76.04" shape-rendering="geometricPrecision" text-rendering="geometricPrecision"><g id="e9pUHTYEM3C2" transform="matrix(.908251-.000551 0.000551 0.908251 3.555221 3.737978)"><path d="M357,325l7,7-16.63,19.31c-3.7,3.79-4.84,3.71-9.27-.77-4.09-4.12-4.12-5.28-.4-8.9Z" transform="translate(-333.01-277.99)" fill="#fda72a"/><path d="M356.18,325.71l7.12,7.13" transform="translate(-333.01-277.99)" fill="#fda72a"/><path d="M357.31,339.67c0,0,1.69-.67,6.69-.67s6.44.67,6.44.67L364,332Z" transform="translate(-333.01-277.99)" fill="#f8c380"/><path d="M349.34,331.69c.665038-4.354756.665038-8.785244,0-13.14L357,325Z" transform="translate(-333.01-277.99)" fill="#f8c380"/><path d="" transform="translate(-333.01-277.99)" fill="#f8c380"/><line x1="29.99" y1="55.01" x2="30.11" y2="55.12" fill="#f8c380"/><path d="M349.42,318.69c-3.55-6.5-2.74-12.86.9-18.95c4.043306-6.948109,9.96755-12.612366,17.09-16.34c11.44-5.94,23.24-4.06,32.51,5c9.52,9.32,11.73,21.18,5.87,32.79-3.801792,7.464586-9.713356,13.647387-17,17.78-6,3.51-12.2,4.11-18.48.6l-7-6.75-7.12-7.13Z" transform="translate(-333.01-277.99)" fill="#ae3a40"/></g><g id="e9pUHTYEM3C10" transform="matrix(.908251 0 0 0.908251 4.96649 2.675152)"><circle r="7.85" transform="translate(7.85 7.85)" fill="#d2ccca"/><path d="M334.88,280.75c-1.054737,3.360964.126928,7.021612,2.947687,9.131557s6.666113,2.209541,9.592313.248443c-.567457.893829-1.321319,1.654514-2.21,2.23-2.667673,1.767241-6.141022,1.738355-8.778932-.073011s-3.912314-5.042601-3.221068-8.166989c.211256-1.263731.792406-2.436472,1.67-3.37Z" transform="translate(-333.01-277.99)" fill="#b6b2b1"/></g></svg>

