<svg id="Слой_1" data-name="Слой 1" xmlns="http://www.w3.org/2000/svg" viewBox="0 0 76.01 76.04"><defs><style>.cls-1{fill:#fda72a;}.cls-2{fill:#d2ccca;}.cls-3{fill:#b6b2b1;}.cls-4{fill:#f8c380;}.cls-5{fill:#ae3a40;}</style></defs><path class="cls-1" d="M357,325l7,7-16.63,19.31c-3.7,3.79-4.84,3.71-9.27-.77-4.09-4.12-4.12-5.28-.4-8.9Z" transform="translate(-333.01 -277.99)"/><path class="cls-1" d="M356.18,325.71l7.12,7.13" transform="translate(-333.01 -277.99)"/><circle class="cls-2" cx="7.85" cy="7.85" r="7.85"/><path class="cls-3" d="M334.88,280.75a8.3,8.3,0,0,0,12.54,9.38,7.35,7.35,0,0,1-2.21,2.23,7.85,7.85,0,0,1-12-8.24A6.48,6.48,0,0,1,334.88,280.75Z" transform="translate(-333.01 -277.99)"/><path class="cls-4" d="M357.31,339.67S359,339,364,339s6.44.67,6.44.67L364,332Z" transform="translate(-333.01 -277.99)"/><path class="cls-4" d="M349.34,331.69a43.52,43.52,0,0,0,0-13.14L357,325Z" transform="translate(-333.01 -277.99)"/><path class="cls-4" d="M364,343" transform="translate(-333.01 -277.99)"/><line class="cls-4" x1="29.99" y1="55.01" x2="30.11" y2="55.12"/><path class="cls-5" d="M349.42,318.69c-3.55-6.5-2.74-12.86.9-18.95a42.66,42.66,0,0,1,17.09-16.34c11.44-5.94,23.24-4.06,32.51,5,9.52,9.32,11.73,21.18,5.87,32.79a42.74,42.74,0,0,1-17,17.78c-6,3.51-12.2,4.11-18.48.6l-7-6.75-7.12-7.13Z" transform="translate(-333.01 -277.99)"/></svg>